<svg width="512" height="512" viewBox="0 0 512 512" fill="none" xmlns="http://www.w3.org/2000/svg">
<circle cx="256" cy="256" r="254.5" fill="black" stroke="white" stroke-width="3"/>
<line x1="340" y1="130.5" x2="374" y2="130.5" stroke="#92D863" stroke-width="3"/>
<line x1="344" y1="165.5" x2="394" y2="165.5" stroke="#82CE5D" stroke-width="3"/>
<line x1="335" y1="200.5" x2="398" y2="200.5" stroke="#74C557" stroke-width="3"/>
<line x1="318" y1="236.5" x2="391" y2="236.5" stroke="#63BA4F" stroke-width="3"/>
<line x1="278" y1="271.5" x2="371" y2="271.5" stroke="#56B24A" stroke-width="3"/>
<line x1="255" y1="306.5" x2="345" y2="306.5" stroke="#46A843" stroke-width="3"/>
<line x1="238" y1="341.5" x2="320" y2="341.5" stroke="#42A541" stroke-width="3"/>
<line x1="255" y1="377.5" x2="305" y2="377.5" stroke="#42A541" stroke-width="3"/>
<line x1="283" y1="412.5" x2="305" y2="412.5" stroke="#42A541" stroke-width="3"/>
<circle cx="276" cy="412" r="8" fill="white"/>
<circle cx="250" cy="377" r="8" fill="white"/>
<circle cx="232" cy="341" r="8" fill="white"/>
<circle cx="251" cy="306" r="8" fill="white"/>
<circle cx="274" cy="271" r="8" fill="white"/>
<circle cx="312" cy="236" r="8" fill="white"/>
<circle cx="329" cy="200" r="8" fill="white"/>
<circle cx="337" cy="165" r="8" fill="white"/>
<circle cx="334" cy="131" r="8" fill="white"/>
<path d="M211 71C229.667 203.541 -42.8291 300.059 193 427C178.327 418.713 166.828 409.716 159 401C102.288 337.855 208.773 264.616 242 187C258.256 149.029 257.581 109.913 211 71Z" fill="url(#paint0_linear_1_127)"/>
<path d="M242 187C208.773 264.616 102.288 337.855 159 401C127.104 326.329 234.013 249.848 242 187Z" fill="url(#paint1_linear_1_127)"/>
<path d="M211 71C257.581 109.913 258.256 149.029 242 187C234.013 249.848 127.104 326.329 159 401C166.828 409.716 178.327 418.713 193 427C179.311 394.642 158.709 325.182 234 253C309.291 180.818 302.469 110.202 211 71Z" fill="url(#paint2_linear_1_127)"/>
<path d="M329 97C353.89 113.801 441.158 175.438 364 275C287.21 374.086 293.67 380.059 306 439C313.645 372.648 309.709 383.562 385 284C460.291 184.438 363.845 105.089 329 97Z" fill="url(#paint3_linear_1_127)"/>
<line x1="210.5" y1="255.5" x2="117.5" y2="255.5" stroke="url(#paint4_linear_1_127)" stroke-width="3" stroke-linecap="round"/>
<line x1="254.5" y1="255.5" x2="347.5" y2="255.5" stroke="url(#paint5_linear_1_127)" stroke-width="3" stroke-linecap="round"/>
<line x1="1.5" y1="-1.5" x2="13.5" y2="-1.5" transform="matrix(0.2428 -0.970076 0.970209 0.242272 212 257)" stroke="white" stroke-width="3" stroke-linecap="round"/>
<line x1="1.5" y1="-1.5" x2="23.5" y2="-1.5" transform="matrix(-0.254769 -0.967002 0.967147 -0.254218 222 266)" stroke="white" stroke-width="3" stroke-linecap="round"/>
<line x1="1.5" y1="-1.5" x2="78.5" y2="-1.5" transform="matrix(-0.12418 0.99226 -0.992296 -0.12389 229 186)" stroke="white" stroke-width="3" stroke-linecap="round"/>
<line x1="1.5" y1="-1.5" x2="136.5" y2="-1.5" transform="matrix(-0.00901907 -0.999959 0.99996 -0.00899822 233 324)" stroke="white" stroke-width="3" stroke-linecap="round"/>
<line x1="1.5" y1="-1.5" x2="78.5" y2="-1.5" transform="matrix(-0.156945 0.987607 -0.987664 -0.156591 242 245)" stroke="white" stroke-width="3" stroke-linecap="round"/>
<line x1="1.5" y1="-1.5" x2="23.5" y2="-1.5" transform="matrix(-0.196335 -0.980537 0.980624 -0.195898 250 270)" stroke="white" stroke-width="3" stroke-linecap="round"/>
<line x1="1.5" y1="-1.5" x2="15.5" y2="-1.5" transform="matrix(-0.359341 0.933206 -0.933485 -0.358617 253 253)" stroke="white" stroke-width="3" stroke-linecap="round"/>
<defs>
<linearGradient id="paint0_linear_1_127" x1="741.971" y1="71" x2="741.971" y2="458.668" gradientUnits="userSpaceOnUse">
<stop stop-color="#28B8C3"/>
<stop offset="0.728515" stop-color="#0C1153"/>
</linearGradient>
<linearGradient id="paint1_linear_1_127" x1="96.3937" y1="255.5" x2="413.021" y2="255.5" gradientUnits="userSpaceOnUse">
<stop stop-color="#0C7998"/>
<stop offset="1" stop-color="#1E1E1E"/>
</linearGradient>
<linearGradient id="paint2_linear_1_127" x1="96.3937" y1="255.5" x2="413.021" y2="255.5" gradientUnits="userSpaceOnUse">
<stop offset="0.04" stop-color="#28B8C3"/>
<stop offset="0.07" stop-color="#1A89B5"/>
<stop offset="0.134615" stop-color="#28B8C3"/>
</linearGradient>
<linearGradient id="paint3_linear_1_127" x1="254.707" y1="71" x2="254.707" y2="440" gradientUnits="userSpaceOnUse">
<stop stop-color="#AAE86E"/>
<stop offset="0.668269" stop-color="#42A541"/>
</linearGradient>
<linearGradient id="paint4_linear_1_127" x1="212" y1="253.5" x2="116" y2="253.5" gradientUnits="userSpaceOnUse">
<stop stop-color="white"/>
<stop offset="0.350962" stop-color="white" stop-opacity="0.5"/>
<stop offset="1" stop-color="white" stop-opacity="0"/>
</linearGradient>
<linearGradient id="paint5_linear_1_127" x1="253" y1="257.5" x2="349" y2="257.5" gradientUnits="userSpaceOnUse">
<stop stop-color="white"/>
<stop offset="0.350962" stop-color="white" stop-opacity="0.5"/>
<stop offset="1" stop-color="white" stop-opacity="0"/>
</linearGradient>
</defs>
</svg>
